<svg preserveAspectRatio="none" width="100%" height="100%" overflow="visible" style="display: block;" viewBox="0 0 297 326.298" fill="none" xmlns="http://www.w3.org/2000/svg">
<g id="clariteam">
<rect x="0.5" y="0.5" width="296" height="325.298" stroke="var(--stroke-0, white)"/>
<path id="Ellipse 1" d="M148.5 72.5226C165.476 72.5226 179.237 86.2842 179.237 103.26C179.237 120.236 165.476 133.997 148.5 133.997C131.524 133.997 117.763 120.236 117.763 103.26C117.763 86.2842 131.524 72.5226 148.5 72.5226Z" stroke="var(--stroke-0, white)"/>
<path id="Ellipse 9" d="M55.65 144.476C72.6257 144.476 86.3873 158.238 86.3873 175.213C86.3873 192.189 72.6257 205.951 55.65 205.951C38.6743 205.951 24.9127 192.189 24.9127 175.213C24.9127 158.238 38.6743 144.476 55.65 144.476Z" stroke="var(--stroke-0, white)"/>
<path id="Ellipse 11" d="M241.35 144.476C258.326 144.476 272.087 158.238 272.087 175.213C272.087 192.189 258.326 205.951 241.35 205.951C224.374 205.951 210.613 192.189 210.613 175.213C210.613 158.238 224.374 144.476 241.35 144.476Z" stroke="var(--stroke-0, white)"/>
<path id="Ellipse 10" d="M0.5 262.462C0.5 232.004 25.1915 207.312 55.6499 207.312C86.1084 207.312 110.8 232.004 110.8 262.462V325.583" stroke="var(--stroke-0, white)"/>
<path id="Ellipse 13" d="M203.865 221.961V190.509C203.865 160.05 179.174 135.359 148.715 135.359C118.257 135.359 93.5655 160.05 93.5655 190.509V222.392" stroke="var(--stroke-0, white)"/>
<path id="Ellipse 12" d="M296.5 262.462C296.5 232.004 271.809 207.312 241.35 207.312C210.892 207.312 186.2 232.004 186.2 262.462V325.583" stroke="var(--stroke-0, white)"/>
<path id="Ellipse 4" d="M148.5 134.713C148.5 117.461 134.515 103.475 117.263 103.475" stroke="var(--stroke-0, white)"/>
<path id="Ellipse 6" d="M148.5 72.0226C148.5 89.2745 134.515 103.26 117.263 103.26" stroke="var(--stroke-0, white)"/>
<path id="Ellipse 5" d="M148.5 134.713C148.5 117.461 162.485 103.475 179.737 103.475" stroke="var(--stroke-0, white)"/>
<path id="Ellipse 7" d="M148.5 72.0226C148.5 89.2745 162.485 103.26 179.737 103.26" stroke="var(--stroke-0, white)"/>
<path id="Ellipse 2" d="M214.637 103.475C199.126 87.9643 179.953 72.0226 148.5 72.0226C117.047 72.0226 97.6587 88.1798 82.3632 103.475" stroke="var(--stroke-0, white)"/>
<path id="Ellipse 3" d="M214.637 103.475C199.126 118.986 179.953 134.928 148.5 134.928C117.047 134.928 97.6587 118.771 82.3632 103.475" stroke="var(--stroke-0, white)"/>
</g>
</svg>
