<svg preserveAspectRatio="none" width="100%" height="100%" overflow="visible" style="display: block;" viewBox="0 0 297 326.298" fill="none" xmlns="http://www.w3.org/2000/svg">
<g id="thinkpencil">
<g clip-path="url(#clip0_0_33)">
<path id="Vector 18" d="M83.2249 245.228H213.775L148.5 177.583L83.2249 245.228Z" stroke="var(--stroke-0, white)" stroke-linejoin="bevel"/>
<path id="Vector 3" d="M83.2249 325.798L83.2249 245.228" stroke="var(--stroke-0, white)"/>
<path id="Vector 19" d="M213.775 325.798L213.775 245.228" stroke="var(--stroke-0, white)"/>
<path id="Vector 20" d="M175.429 325.798L175.429 245.228" stroke="var(--stroke-0, white)"/>
<path id="Vector 22" d="M148.715 177.583L148.715 0.5" stroke="var(--stroke-0, white)"/>
<path id="Vector 21" d="M121.141 325.798L121.14 245.228" stroke="var(--stroke-0, white)"/>
<path id="Ellipse 33" d="M148.5 -131.274C242.098 -131.274 317.973 -55.3978 317.973 38.2C317.973 131.798 242.098 207.674 148.5 207.674C54.9021 207.673 -20.9738 131.798 -20.9738 38.2C-20.9737 -55.3977 54.9022 -131.274 148.5 -131.274Z" stroke="var(--stroke-0, white)"/>
</g>
<rect x="0.5" y="0.5" width="296" height="325.298" stroke="var(--stroke-0, white)"/>
</g>
<defs>
<clipPath id="clip0_0_33">
<rect x="0.5" y="0.5" width="296" height="325.298" fill="white"/>
</clipPath>
</defs>
</svg>
