<svg width="687" height="755" viewBox="0 0 687 755" fill="none" xmlns="http://www.w3.org/2000/svg">
<g clip-path="url(#clip0_2017_31)">
<circle cx="343.5" cy="52.5" r="52.5" stroke="white"/>
<path d="M412 723C412 739.569 398.569 753 382 753C365.431 753 352 739.569 352 723" stroke="white"/>
<path d="M579 647.411C582.159 652.163 584 657.866 584 664C584 680.569 570.568 694 554 694C543.314 694 533.932 688.413 528.618 680" stroke="white"/>
<path d="M107.89 647.577C104.798 652.295 103 657.938 103 664C103 680.569 116.432 694 133 694C143.686 694 153.068 688.413 158.382 680" stroke="white"/>
<path d="M611.371 55.5384C619.856 50.3271 625.5 41.0618 625.5 30.5C625.5 14.2076 612.069 1 595.5 1C588.992 1 582.916 3.03784 578 6.5" stroke="white"/>
<path d="M44 167C27.4315 167 14 153.569 14 137C14 120.431 27.4315 107 44 107" stroke="white"/>
<path d="M643 167C659.569 167 673 153.569 673 137C673 120.431 659.569 107 643 107" stroke="white"/>
<path d="M352 408C352 403.029 347.971 399 343 399C338.029 399 334 403.029 334 408" stroke="white"/>
<path d="M334 724C334 740.569 320.792 754 304.5 754C288.208 754 275 740.569 275 724" stroke="white"/>
<circle cx="344" cy="332" r="422.5" stroke="white"/>
<path d="M352 725V408" stroke="white"/>
<path d="M43 107L642 107" stroke="white"/>
<path d="M43 167L275.5 167" stroke="white"/>
<path d="M411.5 167H642" stroke="white"/>
<path d="M334 725V408" stroke="white"/>
<path d="M528.5 680L350 402.5" stroke="white"/>
<path d="M158.5 680L336 402.5" stroke="white"/>
<path d="M578.964 647.5L412.042 388" stroke="white"/>
<path d="M107.903 647.5L274.824 388" stroke="white"/>
<path d="M611.501 55.5008L412 167" stroke="white"/>
<path d="M75.9988 55.5017L275 167" stroke="white"/>
<path d="M578 6.5L404 107" stroke="white"/>
<path d="M76.1288 55.5384C67.6443 50.3271 61.9998 41.0618 61.9998 30.5C61.9998 14.2076 75.4313 1 91.9998 1C98.508 1 104.584 3.03784 109.5 6.5" stroke="white"/>
<path d="M109.5 6.5L283.5 107" stroke="white"/>
<path d="M275 725L275 167" stroke="white"/>
<path d="M412 725L412 167" stroke="white"/>
</g>
<defs>
<clipPath id="clip0_2017_31">
<rect width="687" height="755" fill="white"/>
</clipPath>
</defs>
</svg>
