<svg width="688" height="755" viewBox="0 0 688 755" fill="none" stroke="currentColor" stroke-width="1" xmlns="http://www.w3.org/2000/svg">
<circle cx="344" cy="238.5" r="72"/>
<circle cx="128.5" cy="405.5" r="72"/>
<circle cx="559.5" cy="405.5" r="72"/>
<path d="M0.5 608C0.5 537.308 57.8075 480 128.5 480C199.192 480 256.5 537.308 256.5 608V754.5"/>
<path d="M472.5 514V441C472.5 370.308 415.192 313 344.5 313C273.808 313 216.5 370.308 216.5 441V515"/>
<path d="M687.5 608C687.5 537.308 630.192 480 559.5 480C488.808 480 431.5 537.308 431.5 608V754.5"/>
<path d="M344 311.5C344 271.459 311.541 239 271.5 239"/>
<path d="M344 166C344 206.041 311.541 238.5 271.5 238.5"/>
<path d="M344 311.5C344 271.459 376.459 239 416.5 239"/>
<path d="M344 166C344 206.041 376.459 238.5 416.5 238.5"/>
<path d="M497.5 239C461.5 203 417 166 344 166C271 166 226 203.5 190.5 239"/>
<path d="M497.5 239C461.5 275 417 312 344 312C271 312 226 274.5 190.5 239"/>
</svg>
