<svg width="411" height="64" viewBox="0 0 411 64" fill="none" xmlns="http://www.w3.org/2000/svg">
<path d="M167.961 51.56C165.646 51.56 163.611 51 161.857 49.88C160.139 48.7227 158.795 47.0613 157.825 44.896C156.891 42.7307 156.425 40.136 156.425 37.112C156.425 33.976 156.91 31.3253 157.881 29.16C158.889 26.9947 160.27 25.3333 162.025 24.176C163.817 23.0187 165.87 22.44 168.185 22.44C170.723 22.44 172.758 23.224 174.289 24.792C175.857 26.3227 176.865 28.2827 177.313 30.672L176.417 31.848V11.128L185.937 11.128V51L177.425 51L176.809 41.48L177.929 42.32C177.705 44.1867 177.126 45.8107 176.193 47.192C175.297 48.5733 174.139 49.656 172.721 50.44C171.339 51.1867 169.753 51.56 167.961 51.56ZM171.265 44.56C172.347 44.56 173.262 44.28 174.009 43.72C174.793 43.1227 175.39 42.2453 175.801 41.088C176.211 39.9307 176.417 38.512 176.417 36.832C176.417 35.264 176.211 33.9387 175.801 32.856C175.427 31.736 174.849 30.896 174.065 30.336C173.318 29.7387 172.403 29.44 171.321 29.44C169.678 29.44 168.371 30.056 167.401 31.288C166.467 32.4827 166.001 34.3867 166.001 37C166.001 39.6133 166.467 41.536 167.401 42.768C168.334 43.9627 169.622 44.56 171.265 44.56Z" fill="white"/>
<path d="M147.8 19.752C145.859 19.752 144.44 19.3974 143.544 18.688C142.685 17.9414 142.256 16.784 142.256 15.216C142.256 13.6107 142.685 12.4534 143.544 11.744C144.44 10.9974 145.859 10.624 147.8 10.624C149.704 10.624 151.104 10.9974 152 11.744C152.896 12.4534 153.344 13.6107 153.344 15.216C153.344 16.784 152.896 17.9414 152 18.688C151.104 19.3974 149.704 19.752 147.8 19.752ZM152.56 23V51H143.04V23H152.56Z" fill="white"/>
<path d="M141.093 51H131.181L128.605 42.656H115.949L113.317 51H103.629L116.621 14.04L128.157 14.04L141.093 51ZM117.741 36.104H126.813L122.277 21.152L117.741 36.104Z" fill="white"/>
<path d="M73.7747 51V23H82.2867L82.7907 32.632L81.7267 31.568C82.1 29.552 82.7533 27.872 83.6867 26.528C84.6573 25.184 85.852 24.176 87.2707 23.504C88.7267 22.7947 90.3507 22.44 92.1427 22.44C94.084 22.44 95.764 22.8133 97.1827 23.56C98.6387 24.3067 99.7773 25.408 100.599 26.864C101.42 28.32 101.831 30.1493 101.831 32.352V51H92.3107V34.872C92.3107 32.9307 91.9373 31.5867 91.1907 30.84C90.444 30.0933 89.492 29.72 88.3347 29.72C87.4387 29.72 86.5987 29.944 85.8147 30.392C85.0307 30.8027 84.4147 31.4747 83.9667 32.408C83.5187 33.3413 83.2947 34.592 83.2947 36.16V51H73.7747Z" fill="white"/>
<path d="M55.2593 22.44C58.2087 22.44 60.7847 23.0187 62.9873 24.176C65.2273 25.296 66.9633 26.9573 68.1953 29.16C69.4647 31.3253 70.0993 33.9387 70.0993 37C70.0993 40.0613 69.4647 42.6933 68.1953 44.896C66.9633 47.0613 65.2273 48.7227 62.9873 49.88C60.7847 51 58.2087 51.56 55.2593 51.56C52.3847 51.56 49.8273 51 47.5873 49.88C45.3473 48.7227 43.5927 47.0613 42.3233 44.896C41.0913 42.6933 40.4753 40.0613 40.4753 37C40.4753 33.9387 41.0913 31.3253 42.3233 29.16C43.5927 26.9573 45.3473 25.296 47.5873 24.176C49.8273 23.0187 52.3847 22.44 55.2593 22.44ZM55.2593 29.216C54.1767 29.216 53.2433 29.4773 52.4593 30C51.6753 30.5227 51.078 31.3627 50.6673 32.52C50.2567 33.6773 50.0513 35.1707 50.0513 37C50.0513 38.8293 50.2567 40.3227 50.6673 41.48C51.078 42.6 51.6753 43.44 52.4593 44C53.2433 44.5227 54.1767 44.784 55.2593 44.784C56.3793 44.784 57.3313 44.5227 58.1153 44C58.8993 43.44 59.4967 42.6 59.9073 41.48C60.318 40.3227 60.5233 38.8293 60.5233 37C60.5233 35.1707 60.318 33.6773 59.9073 32.52C59.4967 31.3627 58.8993 30.5227 58.1153 30C57.3313 29.4773 56.3793 29.216 55.2593 29.216Z" fill="white"/>
<path d="M19.7679 14.04C25.5546 14.04 29.9786 15.6453 33.0399 18.856C36.1386 22.0666 37.6879 26.6213 37.6879 32.52C37.6879 38.4186 36.1386 42.9733 33.0399 46.184C29.9786 49.3946 25.5546 51 19.7679 51H4.08789L4.08789 14.04L19.7679 14.04ZM18.8159 43.72C21.9519 43.72 24.2292 42.7866 25.6479 40.92C27.1039 39.016 27.8319 36.216 27.8319 32.52C27.8319 28.824 27.1039 26.0426 25.6479 24.176C24.2292 22.272 21.9519 21.32 18.8159 21.32L13.7199 21.32L13.7199 43.72H18.8159Z" fill="white"/>
<path d="M226.958 51.0003H217.456C217.456 47.0099 214.266 43.775 210.331 43.775C206.395 43.775 203.205 47.0099 203.205 51.0003H193.75C193.75 41.7208 201.202 34.1649 210.354 34.1649C219.506 34.1649 226.958 41.7208 226.958 51.0003Z" fill="white" fill-opacity="0.75"/>
<path d="M226.958 51H217.457C217.48 31.7798 232.896 16.125 251.875 16.125V25.7587C238.136 25.7587 226.958 37.0925 226.958 51.0236V51Z" fill="white"/>
<path d="M409.84 23L399.648 51C398.603 53.9493 397.464 56.3013 396.232 58.056C395 59.8107 393.544 61.08 391.864 61.864C390.184 62.648 388.168 63.04 385.816 63.04C384.248 63.04 382.811 62.872 381.504 62.536C380.198 62.2 379.059 61.7333 378.088 61.136L379.992 54.696C380.664 55.1813 381.374 55.5173 382.12 55.704C382.867 55.928 383.819 56.04 384.976 56.04C386.059 56.04 386.936 55.8533 387.608 55.48C388.318 55.1067 388.878 54.3973 389.288 53.352L390.016 51.616L386.768 44L378.368 23H388.84L393.152 38.96L394.496 44.896L396.064 38.736L400.376 23H409.84Z" fill="white"/>
<path d="M373.158 10.3438C374.689 10.3438 376.033 10.5117 377.19 10.8477C378.348 11.1463 379.207 11.5015 379.767 11.9121L378.814 17.8477C378.404 17.5863 377.937 17.3818 377.414 17.2324C376.891 17.0831 376.238 17.0078 375.454 17.0078C374.147 17.0078 373.065 17.307 372.206 17.9043C371.385 18.5017 370.975 19.5468 370.975 21.04V23H379.486V29.7764H371.534V51H362.015V29.7764H357.534V23H362.015V20.4238C362.015 18.6319 362.295 17.1013 362.854 15.832C363.452 14.5627 364.273 13.5176 365.318 12.6963C366.364 11.875 367.558 11.2776 368.902 10.9043C370.246 10.531 371.665 10.3438 373.158 10.3438Z" fill="white"/>
<path d="M350.253 19.752C348.312 19.752 346.893 19.3974 345.997 18.688C345.139 17.9414 344.709 16.784 344.709 15.216C344.709 13.6107 345.139 12.4534 345.997 11.744C346.893 10.9974 348.312 10.624 350.253 10.624C352.157 10.624 353.557 10.9974 354.453 11.744C355.349 12.4534 355.797 13.6107 355.797 15.216C355.797 16.784 355.349 17.9414 354.453 18.688C353.557 19.3974 352.157 19.752 350.253 19.752ZM355.013 23V51H345.493V23H355.013Z" fill="white"/>
<path d="M323.111 51V23H331.511L331.903 29.048C332.612 26.9573 333.657 25.3333 335.039 24.176C336.457 23.0187 338.249 22.44 340.415 22.44C341.124 22.44 341.721 22.496 342.207 22.608C342.729 22.72 343.14 22.8693 343.439 23.056L342.487 30.896C342.113 30.7467 341.628 30.6347 341.031 30.56C340.471 30.448 339.78 30.392 338.959 30.392C337.839 30.392 336.793 30.6347 335.823 31.12C334.852 31.6053 334.068 32.3333 333.471 33.304C332.911 34.2373 332.631 35.432 332.631 36.888V51H323.111Z" fill="white"/>
<path d="M305.577 22.4404C308.526 22.4404 311.028 23.0185 313.081 24.1758C315.172 25.2958 316.758 26.8639 317.841 28.8799C318.923 30.8585 319.465 33.1359 319.465 35.7119C319.465 36.3838 319.446 37.0557 319.409 37.7275C319.372 38.3995 319.316 38.9602 319.241 39.4082H300.124C300.244 40.2581 300.436 41.0048 300.705 41.6475C301.19 42.7675 301.881 43.5896 302.777 44.1123C303.673 44.5975 304.756 44.8398 306.025 44.8398C307.444 44.8398 308.564 44.5599 309.385 44C310.243 43.44 310.878 42.6555 311.289 41.6475L318.905 44.168C318.383 45.7733 317.468 47.1359 316.161 48.2559C314.892 49.3385 313.361 50.1597 311.569 50.7197C309.815 51.2797 307.967 51.5595 306.025 51.5596C302.927 51.5596 300.238 50.9815 297.961 49.8242C295.721 48.6669 293.985 47.0052 292.753 44.8398C291.521 42.6745 290.905 40.0613 290.905 37C290.905 33.9388 291.521 31.3254 292.753 29.1602C293.985 26.9948 295.703 25.3331 297.905 24.1758C300.145 23.0185 302.703 22.4404 305.577 22.4404ZM305.577 29.1035C304.382 29.1035 303.356 29.3843 302.497 29.9443C301.676 30.5043 301.041 31.3816 300.593 32.5762C300.416 33.0919 300.279 33.6706 300.179 34.3115H310.409C310.245 32.8993 309.868 31.7602 309.273 30.8955C308.489 29.7009 307.257 29.1035 305.577 29.1035Z" fill="white"/>
<path d="M293.537 14.04L280.433 51L269.121 51L255.961 14.04L266.097 14.04L272.873 36.384L274.889 43.664L276.849 36.496L283.737 14.04H293.537Z" fill="white"/>
</svg>
