<svg width="280" height="56" viewBox="0 0 280 56" fill="none" xmlns="http://www.w3.org/2000/svg">
<g opacity="0.8">
<path d="M0 1.37043L8.35664 0.0205969L8.35664 14.1939C8.91749 14.0064 9.6279 13.8377 10.4879 13.6877C11.3852 13.5002 12.2452 13.4065 13.0678 13.4065C15.4607 13.4065 17.4424 13.7439 19.0128 14.4188C20.6205 15.0563 21.8918 15.9749 22.8265 17.1748C23.7987 18.3746 24.4717 19.7994 24.8456 21.4492C25.2569 23.099 25.4625 24.9363 25.4625 26.9611L25.4625 43.6653L17.1059 43.6653L17.1059 27.9735C17.1059 25.2738 16.7507 23.3615 16.0403 22.2366C15.3672 21.1118 14.096 20.5494 12.2265 20.5494C11.4787 20.5494 10.7683 20.6243 10.0953 20.7743C9.45964 20.8868 8.8801 21.018 8.35664 21.168L8.35664 43.6653H0L0 1.37043Z" fill="currentColor"/>
<path d="M63.6979 54.0703L63.6979 15.0938C64.4457 14.8688 65.3057 14.6626 66.2778 14.4751C67.2499 14.2501 68.2595 14.0626 69.3064 13.9127C70.3907 13.7627 71.475 13.6502 72.5593 13.5752C73.681 13.4627 74.7466 13.4065 75.7561 13.4065C78.1865 13.4065 80.3551 13.7814 82.262 14.5313C84.1689 15.2437 85.7766 16.2749 87.0853 17.6247C88.3939 18.937 89.3848 20.5494 90.0578 22.4616C90.7682 24.3739 91.1234 26.5111 91.1234 28.8733C91.1234 31.1606 90.843 33.2416 90.2821 35.1163C89.7213 36.9911 88.8987 38.6034 87.8144 39.9532C86.7301 41.3031 85.384 42.353 83.7763 43.1029C82.1685 43.8528 80.3177 44.2277 78.2239 44.2277C76.0179 44.2277 73.9614 43.7965 72.0546 42.9341L72.0546 52.7204L63.6979 54.0703ZM72.0546 35.96C72.578 36.2974 73.251 36.5787 74.0736 36.8036C74.9336 37.0286 75.7935 37.1411 76.6535 37.1411C80.6168 37.1411 82.5985 34.4602 82.5985 29.0983C82.5985 26.5111 82.019 24.4489 80.8599 22.9116C79.7008 21.3368 77.9808 20.5494 75.7001 20.5494C74.2045 20.5494 72.9893 20.6431 72.0546 20.8306V35.96Z" fill="currentColor"/>
<path d="M96.1439 29.0983C96.1439 26.4736 96.5365 24.1864 97.3216 22.2366C98.1442 20.2494 99.2098 18.5996 100.518 17.2873C101.827 15.9374 103.323 14.9438 105.005 14.3064C106.725 13.6314 108.483 13.294 110.277 13.294C114.465 13.294 117.774 14.5688 120.204 17.1185C122.635 19.6682 123.85 23.4553 123.85 28.4796C123.85 28.9671 123.831 29.5108 123.794 30.1107C123.756 30.6731 123.719 31.1793 123.682 31.6293L104.725 31.6293C104.912 33.354 105.716 34.7226 107.136 35.735C108.557 36.7474 110.464 37.2536 112.857 37.2536C114.428 37.2536 115.942 37.1223 117.4 36.8599C118.858 36.5599 120.055 36.2037 120.989 35.7913L122.111 42.5967C121.662 42.8216 121.064 43.0466 120.316 43.2716C119.569 43.4966 118.727 43.684 117.793 43.834C116.895 44.0215 115.923 44.1715 114.876 44.284C113.829 44.3965 112.782 44.4527 111.735 44.4527C109.081 44.4527 106.763 44.059 104.781 43.2716C102.837 42.4842 101.21 41.4156 99.9015 40.0657C98.6303 38.6784 97.6768 37.0473 97.0412 35.1726C96.443 33.2978 96.1439 31.2731 96.1439 29.0983ZM104.725 25.8925H115.774C115.736 25.18 115.605 24.4864 115.381 23.8115C115.194 23.1365 114.876 22.5366 114.428 22.0117C114.016 21.4492 113.474 21.018 112.801 20.7181C112.165 20.3806 111.362 20.2119 110.389 20.2119C109.455 20.2119 108.651 20.3806 107.978 20.7181C107.305 21.018 106.744 21.4305 106.295 21.9554C105.847 22.4804 105.491 23.0803 105.23 23.7552C105.005 24.4301 104.837 25.1425 104.725 25.8925Z" fill="currentColor"/>
<path d="M130.299 15.6562C131.794 15.1313 133.552 14.6438 135.571 14.1939C137.627 13.7064 139.908 13.4627 142.413 13.4627C142.862 13.4627 143.385 13.5002 143.983 13.5752C144.619 13.6127 145.273 13.6877 145.946 13.8002C146.619 13.8752 147.255 13.9876 147.853 14.1376C148.489 14.2501 149.031 14.4001 149.48 14.5876L148.078 21.5055C147.33 21.318 146.451 21.1305 145.442 20.9431C144.432 20.7181 143.348 20.6056 142.189 20.6056C141.665 20.6056 141.03 20.6618 140.282 20.7743C139.571 20.8493 139.029 20.9431 138.655 21.0555V43.6653H130.299V15.6562Z" fill="currentColor"/>
<path d="M153.959 54.0703V15.0938C154.707 14.8688 155.567 14.6626 156.539 14.4751C157.511 14.2501 158.521 14.0626 159.568 13.9127C160.652 13.7627 161.737 13.6502 162.821 13.5752C163.943 13.4627 165.008 13.4065 166.018 13.4065C168.448 13.4065 170.617 13.7814 172.524 14.5313C174.43 15.2437 176.038 16.2749 177.347 17.6247C178.655 18.937 179.646 20.5494 180.319 22.4616C181.03 24.3739 181.385 26.5111 181.385 28.8733C181.385 31.1606 181.104 33.2416 180.544 35.1163C179.983 36.9911 179.16 38.6034 178.076 39.9532C176.992 41.3031 175.646 42.353 174.038 43.1029C172.43 43.8528 170.579 44.2277 168.485 44.2277C166.279 44.2277 164.223 43.7965 162.316 42.9341V52.7204L153.959 54.0703ZM162.316 35.96C162.84 36.2974 163.513 36.5787 164.335 36.8036C165.195 37.0286 166.055 37.1411 166.915 37.1411C170.878 37.1411 172.86 34.4602 172.86 29.0983C172.86 26.5111 172.28 24.4489 171.121 22.9116C169.962 21.3368 168.242 20.5494 165.962 20.5494C164.466 20.5494 163.251 20.6431 162.316 20.8306V35.96Z" fill="currentColor"/>
<path d="M187.808 15.6562C189.303 15.1313 191.06 14.6438 193.079 14.1939C195.136 13.7064 197.417 13.4627 199.922 13.4627C200.371 13.4627 200.894 13.5002 201.492 13.5752C202.128 13.6127 202.782 13.6877 203.455 13.8002C204.128 13.8752 204.764 13.9876 205.362 14.1376C205.998 14.2501 206.54 14.4001 206.989 14.5876L205.586 21.5055C204.839 21.318 203.96 21.1305 202.95 20.9431C201.941 20.7181 200.857 20.6056 199.697 20.6056C199.174 20.6056 198.538 20.6618 197.791 20.7743C197.08 20.8493 196.538 20.9431 196.164 21.0555V43.6653H187.808V15.6562Z" fill="currentColor"/>
<path d="M227.68 43.6653V15.0938C229.101 14.6813 230.933 14.3064 233.177 13.9689C235.42 13.5939 237.776 13.4065 240.243 13.4065C242.748 13.4065 244.824 13.7439 246.469 14.4188C248.151 15.0563 249.479 15.9749 250.451 17.1748C251.423 18.3746 252.115 19.7994 252.526 21.4492C252.937 23.099 253.143 24.9363 253.143 26.9611V43.6653H244.786V27.9735C244.786 25.2738 244.431 23.3615 243.721 22.2366C243.01 21.1118 241.683 20.5494 239.739 20.5494C239.14 20.5494 238.505 20.5868 237.832 20.6618C237.159 20.6993 236.56 20.7556 236.037 20.8306V43.6653H227.68Z" fill="currentColor"/>
<path d="M268.783 5.3637V14.0814L278.822 14.0814V21.0555L268.783 21.0555V31.4605C268.783 33.2228 269.082 34.6289 269.68 35.6788C270.316 36.7286 271.569 37.2536 273.438 37.2536C274.335 37.2536 275.251 37.1786 276.186 37.0286C277.158 36.8411 278.037 36.5974 278.822 36.2974L280 42.8216C278.99 43.2341 277.869 43.5903 276.635 43.8903C275.401 44.1902 273.887 44.3402 272.092 44.3402C269.811 44.3402 267.923 44.0403 266.427 43.4403C264.932 42.8029 263.735 41.9405 262.838 40.8531C261.941 39.7283 261.305 38.3784 260.931 36.8036C260.595 35.2288 260.426 33.4853 260.426 31.573V6.71353L268.783 5.3637Z" fill="currentColor"/>
<path d="M219.797 13.4986L219.797 43.665H211.44L211.44 13.4986L219.797 12.1487V13.4986Z" fill="currentColor"/>
<path d="M219.797 0L211.44 1.34984V9.89881L219.797 8.54898V0Z" fill="currentColor"/>
<path d="M57.4216 41.7142L57.4216 14.4751L49.065 14.4751L49.065 36.477C48.5415 36.777 47.9059 37.0395 47.1581 37.2644C46.4103 37.4894 45.6064 37.6019 44.7464 37.6019C40.97 37.6019 39.0818 35.2584 39.0818 30.5715L39.0818 14.4751L30.5569 14.4751L30.557 30.5715C30.557 34.9585 31.6413 38.3518 33.8099 40.7515C35.9785 43.1512 39.1005 44.3511 43.176 44.3511C45.3447 44.3511 47.3076 43.9386 49.065 43.1137V44.1823C49.065 45.8696 48.5602 46.3262 47.5507 47.3386C46.5785 48.3884 44.896 48.9134 42.503 48.9134C40.6709 48.9134 39.0258 48.7634 37.5676 48.4634C36.1467 48.1635 34.782 47.751 33.4734 47.2261L32.0152 54.2565C33.5855 54.7814 35.2494 55.1939 37.0067 55.4938C38.8014 55.8313 40.5961 56 42.3909 56C47.5507 56 51.3457 54.8376 53.7761 52.5129C56.2064 50.1882 57.4216 46.5887 57.4216 41.7142Z" fill="currentColor"/>
</g>
</svg>
