<svg
  width="1330"
  height="598"
  viewBox="0 0 1330 598"
  fill="none"
  stroke="currentColor"
  stroke-width="2"
  xmlns="http://www.w3.org/2000/svg"
  class="squiggle"
>
  <style>
    path {
      transition: all 100ms ease-in-out;
    }
    .letter-group:hover .letter-animate {
      stroke-width: 16;
    }
    .i-letter:hover + .r-letter .overlap {
      stroke: transparent;
    }
    .squiggle:has(.r-letter:hover) .i-letter .overlap {
      stroke: transparent;
    }
    .r-letter:hover + .a-letter .overlap {
      stroke: transparent;
    }
    .squiggle:has(.a-letter:hover) .r-letter .underlap {
      stroke: transparent;
    }
  </style>
  <g class="letter-group f-letter">
    <g id="f-letter" class="letter-animate">
      <path
        d="M524.029 438.698C520.362 455.515 553.194 502.529 615.631 498.306"
      />
      <path
        d="M446.533 357.19C451.08 367.772 484.792 413.436 526.352 420.211C557.399 425.293 629.028 371.111 600.059 343.786C572.263 317.419 530.752 389.278 530.581 401.995"
      />
      <path
        d="M431.864 322.353C425.875 294.587 428.05 264.905 449.246 236.893C469.146 210.6 493.886 203.309 510.705 221.378C550.505 264.194 456.653 342.141 407.173 353.213C348.085 373.885 349.761 322.353 292.897 322.353C235.447 322.353 177.679 342.46 112.235 329.08"
      />
    </g>
    <use
      href="#f-letter"
      stroke-width="30"
      stroke-opacity="0"
      stroke-linecap="square"
    />
  </g>
  <g class="letter-group i-letter">
    <g id="i-letter" class="letter-animate">
      <path
        d="M571.309 244.455C573.265 229.897 586.906 203.284 594.216 193.93C617.44 164.151 649.612 171.197 664.5 191.009C679.168 210.404 668.852 241.214 638.904 248.358"
      />
      <path
        d="M581.039 297.631C647.705 336.003 624.187 370.841 627.488 391.635"
      />
      <path
        d="M629.321 429.933C630.568 459.713 585.782 478.838 570.38 463.568C560.332 453.6 563.828 431.259 588.96 416.357C612.306 402.535 641.056 419.18 652.839 401.872"
      />
      <path
        d="M545.591 285.724C532.585 284.619 495.744 315.185 481.858 343.197C472.715 361.634 488.263 388.566 510.241 376.585C533.465 363.942 560.895 325.029 564.684 284.153"
      />
      <path
        class="overlap"
        d="M676.577 370.84C682.549 359.783 680.346 341.856 673.472 328.908"
      />
    </g>
    <use
      href="#i-letter"
      stroke-width="30"
      stroke-opacity="0"
      stroke-linecap="square"
    />
  </g>
  <g class="letter-group r-letter">
    <g id="r-letter" class="letter-animate">
      <path
        class="underlap"
        d="M700.095 254.177C680.904 247.426 666.529 257.074 656.799 269.644"
      />
      <path
        class="overlap"
        d="M676.577 370.84C682.549 359.783 680.346 341.856 673.472 328.908"
      />
      <path
        d="M652.839 295.544C639.662 284.3 646.312 283.147 629.321 265.151C614.653 249.66 601.525 244.848 595.536 234.61"
      />
      <path
        d="M539.846 209.446C519.628 227.638 567.764 284.03 600.303 266.084"
      />
      <path
        d="M564.659 209.446C548.5 200.608 520.337 141.368 580.721 98.6746"
      />
      <path
        d="M566.664 181.655C601.574 132.038 656.922 130.492 689.363 164.74C726.375 203.824 741.654 260.486 685.207 301.535C656.775 325.078 621.956 317.861 624.53 293.875"
      />
      <path d="M741.728 250.249C763.07 234.463 763.95 212.687 758.62 197.662" />
    </g>
    <use
      href="#r-letter"
      stroke-width="30"
      stroke-opacity="0"
      stroke-linecap="square"
    />
  </g>
  <g class="letter-group a-letter">
    <g id="a-letter" class="letter-animate">
      <path
        class="overlap"
        d="M700.095 254.177C680.904 247.426 666.529 257.074 656.799 269.644"
      />
      <path
        d="M743.341 363.132C739.748 340.016 716.566 304.82 691.888 324.041"
      />
      <path
        d="M656.799 345.726C645.413 357.128 650.759 375.462 666.007 390.732C682.914 407.662 726.595 404.033 750.675 384.81C791.746 352.01 765.539 289.063 737.694 271.657"
      />
    </g>
    <use
      href="#a-letter"
      stroke-width="30"
      stroke-opacity="0"
      stroke-linecap="square"
    />
  </g>
  <g class="letter-group s-letter">
    <g id="s-letter" class="letter-animate">
      <path
        d="M752.481 402.796C758.411 437.712 801.686 438.962 817.413 412.872C831.006 390.335 820.391 350.029 804.468 325.643C788.546 301.257 764.313 225.077 817.413 225.077C851.383 225.077 861.637 246.702 860.179 283.068C859.069 310.765 837.595 359.525 860.179 359.525C895.753 359.525 861.964 304.186 922.323 325.373C981.411 346.044 980.115 318.916 1036.98 318.916C1094.43 318.916 1152.2 339.023 1217.64 325.643"
      />
    </g>
    <use
      href="#s-letter"
      stroke-width="30"
      stroke-opacity="0"
      stroke-linecap="square"
    />
  </g>
</svg>
