<svg width="36" height="36" viewBox="0 0 36 36" fill="none" xmlns="http://www.w3.org/2000/svg">
<path d="M26.1121 13.6965L25.961 11.9697L13.4123 10.8845L12.5487 1.09059L35.1364 3.04722L36 12.8411L26.1121 13.6965ZM10.9025 10.6653L10.039 0.871399L0 0L0.426387 4.84883L1.01469 11.5153L10.9025 10.6599V10.6653ZM1.07946 12.2424L1.94303 22.0362L14.4918 23.1215L14.6429 24.8482L24.5307 23.9929L23.6672 14.199L1.07946 12.2424ZM2.15892 24.4847L2.31005 26.2115L2.77961 31.5414L3.02249 34.2732L3.17361 36L13.0615 35.1446L12.1979 25.3508L2.15892 24.4794V24.4847Z" fill="white"/>
</svg>