<svg
  width="24"
  height="24"
  class="logo"
  viewBox="0 0 24 24"
  fill="currentColor"
>
  <path
    d="M17.4081 9.13098L17.3073 7.9798L8.94153 7.25631L8.36582 0.727057L23.4243 2.03148L24 8.56074L17.4081 9.13098ZM7.26837 7.11019L6.69265 0.580933L0 0L0.284258 3.23255L0.676462 7.67686L7.26837 7.10662V7.11019ZM0.71964 8.16157L1.29535 14.6908L9.66117 15.4143L9.76192 16.5655L16.3538 15.9952L15.7781 9.46599L0.71964 8.16157ZM1.43928 16.3231L1.54003 17.4743L1.85307 21.0276L2.01499 22.8488L2.11574 24L8.70765 23.4298L8.13193 16.9005L1.43928 16.3196V16.3231Z"
  />
</svg>
