<svg width="300" height="48" viewBox="0 0 300 48" fill="none" xmlns="http://www.w3.org/2000/svg">
<path d="M12.7765 48C12.2256 48 11.8442 47.5773 11.6323 46.7318L3.94101 19.3395C3.64438 18.325 3.34774 17.6697 3.05111 17.3738C2.79685 17.0779 2.37308 16.8666 1.77981 16.7398L0.826341 16.5495C0.275447 16.4227 0 16.148 0 15.7252C0 15.3025 0.296635 15.0911 0.889906 15.0911H11.1874C11.7807 15.0911 12.0773 15.3025 12.0773 15.7252C12.0773 16.1902 11.8018 16.465 11.251 16.5495L10.2339 16.6764C9.21688 16.8032 8.58123 17.0568 8.32698 17.4373C8.07272 17.7754 8.07272 18.4095 8.32698 19.3395L13.3486 37.7913C13.4757 38.214 13.6664 38.4254 13.9207 38.4254C14.2173 38.4254 14.4292 38.214 14.5563 37.7913L18.8787 21.3686C18.9635 21.0304 19.0058 20.6922 19.0058 20.354C19.0482 20.0159 19.0058 19.6565 18.8787 19.2761C18.5821 18.2616 18.2854 17.6275 17.9888 17.3738C17.7345 17.0779 17.3108 16.8666 16.7175 16.7398L15.764 16.5495C15.2132 16.4227 14.9377 16.148 14.9377 15.7252C14.9377 15.3025 15.2343 15.0911 15.8276 15.0911H26.1251C26.7184 15.0911 27.015 15.3025 27.015 15.7252C27.015 16.1902 26.7395 16.465 26.1887 16.5495L25.1716 16.6764C24.1546 16.8032 23.5401 17.0568 23.3282 17.4373C23.1164 17.7754 23.0952 18.4095 23.2647 19.3395L27.3328 37.6645C27.4176 38.0872 27.5871 38.2985 27.8413 38.2985C28.138 38.2985 28.3499 38.0872 28.477 37.6645L33.3079 20.4808C33.6469 19.3395 33.7317 18.4941 33.5622 17.9445C33.435 17.3527 32.8418 16.9723 31.7823 16.8032L30.4475 16.5495C29.8966 16.4227 29.6211 16.148 29.6211 15.7252C29.6211 15.3025 29.9178 15.0911 30.5111 15.0911H38.4566C39.0499 15.0911 39.3465 15.3236 39.3465 15.7886C39.3465 16.2114 39.0923 16.5073 38.5838 16.6764L38.0117 16.8666C37.376 17.0779 36.8251 17.4584 36.359 18.0079C35.8929 18.5575 35.4691 19.5086 35.0877 20.8613L27.8413 46.7318C27.6295 47.5773 27.2269 48 26.6336 48C26.1251 48 25.7649 47.5773 25.553 46.7318L20.595 26.4412C20.4678 25.9762 20.2559 25.7437 19.9593 25.7437C19.7051 25.7015 19.5144 25.9339 19.3872 26.4412L13.9207 46.7318C13.7088 47.5773 13.3274 48 12.7765 48Z" fill="currentColor"/>
<path d="M46.064 9.06737C45.1741 9.06737 44.4114 8.75033 43.7757 8.11625C43.1824 7.48217 42.8858 6.67899 42.8858 5.70674C42.8858 4.73448 43.1824 3.95244 43.7757 3.36063C44.4114 2.72655 45.1741 2.40951 46.064 2.40951C46.9539 2.40951 47.6955 2.72655 48.2888 3.36063C48.8821 3.95244 49.1787 4.73448 49.1787 5.70674C49.1787 6.67899 48.8821 7.48217 48.2888 8.11625C47.6955 8.75033 46.9539 9.06737 46.064 9.06737ZM40.7246 47.4293C40.089 47.4293 39.7711 47.1968 39.7711 46.7318C39.7711 46.3514 40.0466 46.0978 40.5975 45.9709L41.3603 45.8441C42.4197 45.675 43.0977 45.4214 43.3943 45.0832C43.691 44.7028 43.8393 44.0687 43.8393 43.181V21.8758C43.8393 21.1149 43.7121 20.6077 43.4579 20.354C43.246 20.0581 42.8434 19.8679 42.2502 19.7834L40.9153 19.5931C40.3644 19.5509 40.089 19.3184 40.089 18.8956C40.089 18.5575 40.428 18.325 41.106 18.1981C42.4197 17.9868 43.4791 17.6486 44.2842 17.1836C45.0894 16.7186 45.8733 16.148 46.6361 15.4716C47.0175 15.0911 47.3353 14.9009 47.5896 14.9009C47.971 14.9009 48.1617 15.1546 48.1617 15.6618V43.181C48.1617 44.0687 48.2888 44.7028 48.5431 45.0832C48.7973 45.4637 49.2847 45.6962 50.0051 45.7807L51.5942 45.9709C52.0603 46.0555 52.2934 46.288 52.2934 46.6684C52.2934 47.1757 51.9756 47.4293 51.3399 47.4293H40.7246Z" fill="currentColor"/>
<path d="M61.2977 48C60.3231 48 59.2848 47.8732 58.183 47.6195C57.0813 47.4082 56.1914 47.1334 55.5133 46.7952C55.1319 46.5839 54.9412 46.2246 54.9412 45.7173L54.7506 38.6156C54.7506 37.897 55.026 37.5376 55.5769 37.5376C56.043 37.5376 56.3609 37.8758 56.5304 38.5522C57.2508 41.5535 58.1195 43.6037 59.1365 44.7028C60.1959 45.8018 61.4672 46.3514 62.9504 46.3514C64.1793 46.3514 65.1963 45.8864 66.0015 44.9564C66.8067 43.9841 67.2092 42.6526 67.2092 40.9617C67.2092 39.2708 66.7431 37.7701 65.8108 36.4597C64.8785 35.1493 63.3106 33.712 61.107 32.148C58.9034 30.6684 57.2931 29.1889 56.2761 27.7094C55.2591 26.1876 54.7506 24.539 54.7506 22.7635C54.7506 20.354 55.5981 18.4095 57.2931 16.93C58.9882 15.4505 61.2342 14.7107 64.031 14.7107C64.8785 14.7107 65.7049 14.8164 66.51 15.0277C67.3152 15.1968 68.0356 15.4927 68.6712 15.9155C69.0526 16.1691 69.2433 16.5073 69.2433 16.93L69.3704 23.9049C69.3704 24.539 69.1162 24.856 68.6077 24.856C68.311 24.856 68.0991 24.7715 67.972 24.6024C67.8449 24.391 67.7389 24.1374 67.6542 23.8415C66.8067 21.0938 65.9591 19.1915 65.1116 18.1347C64.2641 17.0357 63.2258 16.4861 61.9969 16.4861C60.8951 16.4861 59.984 16.8666 59.2636 17.6275C58.5432 18.3884 58.183 19.3395 58.183 20.4808C58.183 21.9604 58.628 23.2497 59.5179 24.3487C60.4078 25.4478 62.0181 26.8005 64.3488 28.4069C66.4676 29.9287 68.0568 31.5773 69.1162 33.3527C70.218 35.0859 70.7689 36.9881 70.7689 39.0594C70.7689 41.7649 69.9001 43.9419 68.1627 45.5905C66.4253 47.1968 64.1369 48 61.2977 48Z" fill="currentColor"/>
<path d="M74.2406 47.4293C73.7321 47.4293 73.4778 47.1968 73.4778 46.7318C73.4778 46.3091 73.7109 46.0555 74.177 45.9709L75.0669 45.8441C75.9568 45.7173 76.5289 45.4637 76.7832 45.0832C77.0798 44.7028 77.2281 44.0687 77.2281 43.181V6.84808C77.2281 6.08718 77.101 5.57992 76.8467 5.32629C76.6348 5.03038 76.2323 4.84016 75.639 4.75561L74.3041 4.56539C73.838 4.48084 73.6049 4.22721 73.6049 3.80449C73.6049 3.38177 73.838 3.12814 74.3041 3.04359C75.4907 2.78996 76.4865 2.49405 77.2917 2.15588C78.0968 1.8177 78.7749 1.47952 79.3258 1.14135C80.0038 0.718627 80.5123 0.507267 80.8513 0.507267C81.3174 0.507267 81.5505 0.845443 81.5505 1.5218V18.325C81.5505 18.7054 81.6777 18.9379 81.9319 19.0225C82.1862 19.0647 82.504 18.9168 82.8854 18.5786C84.4957 17.0991 85.9153 16.0845 87.1442 15.535C88.3731 14.9855 89.6656 14.7107 91.0217 14.7107C93.0134 14.7107 94.5813 15.3871 95.7254 16.7398C96.8696 18.0502 97.4417 19.9947 97.4417 22.5733V43.181C97.4417 44.0687 97.5688 44.7028 97.8231 45.0832C98.1197 45.4214 98.713 45.6539 99.6029 45.7807L101.001 45.9709C101.467 46.0555 101.701 46.3091 101.701 46.7318C101.701 47.1968 101.446 47.4293 100.938 47.4293H90.2589C89.6656 47.4293 89.369 47.1968 89.369 46.7318C89.369 46.3091 89.602 46.0555 90.0682 45.9709L90.9581 45.8441C91.848 45.7173 92.4201 45.4637 92.6743 45.0832C92.971 44.7028 93.1193 44.0687 93.1193 43.181V23.2708C93.1193 21.1995 92.7379 19.7411 91.9751 18.8956C91.2124 18.0502 90.1318 17.6275 88.7333 17.6275C87.3773 17.6275 86.1484 18.0291 85.0466 18.8322C83.9872 19.5931 83.1396 20.6288 82.504 21.9392C81.8683 23.2074 81.5505 24.6235 81.5505 26.1876V43.181C81.5505 44.0687 81.6777 44.7028 81.9319 45.0832C82.2285 45.4637 82.8218 45.6962 83.7117 45.7807L85.428 45.9709C85.8941 46.0555 86.1272 46.3091 86.1272 46.7318C86.1272 47.1968 85.8729 47.4293 85.3644 47.4293H74.2406Z" fill="currentColor"/>
<path d="M107.785 43.181V18.3884C107.785 17.3738 107.277 16.8666 106.26 16.8666H104.798C104.289 16.8666 104.035 16.6552 104.035 16.2325C104.035 15.8098 104.289 15.5773 104.798 15.535C106.79 15.3236 107.785 14.4571 107.785 12.9353V12.5548C107.785 10.3567 108.103 8.30647 108.739 6.40423C109.417 4.50198 110.37 2.95905 111.599 1.77543C112.871 0.59181 114.417 0 116.239 0C117.935 0 119.354 0.486129 120.498 1.45839C121.642 2.43065 122.215 3.59313 122.215 4.94584C122.215 5.74901 122.003 6.36195 121.579 6.78468C121.198 7.16512 120.668 7.35535 119.99 7.35535C119.142 7.35535 118.528 7.08058 118.146 6.53104C117.807 5.9815 117.532 5.36856 117.32 4.69221C117.108 3.97358 116.833 3.3395 116.494 2.78996C116.197 2.24042 115.646 1.96565 114.841 1.96565C113.994 1.96565 113.315 2.45178 112.807 3.42404C112.341 4.35403 112.108 6.12946 112.108 8.75033V14.3303C112.108 14.8375 112.362 15.0911 112.871 15.0911H118.337C118.973 15.0911 119.291 15.3871 119.291 15.9789C119.291 16.5707 118.973 16.8666 118.337 16.8666H112.871C112.362 16.8666 112.108 17.1202 112.108 17.6275V43.181C112.108 44.0687 112.235 44.6816 112.489 45.0198C112.786 45.358 113.379 45.5694 114.269 45.6539L117.638 45.9709C118.104 46.0555 118.337 46.288 118.337 46.6684C118.337 47.1757 118.019 47.4293 117.384 47.4293H104.162C103.527 47.4293 103.209 47.1968 103.209 46.7318C103.209 46.2668 103.484 46.0132 104.035 45.9709L105.624 45.8441C106.514 45.7596 107.086 45.5271 107.34 45.1466C107.637 44.7239 107.785 44.0687 107.785 43.181Z" fill="currentColor"/>
<path d="M129.391 48C128.332 48 127.315 47.7675 126.34 47.3025C125.366 46.8375 124.56 46.0978 123.925 45.0832C123.289 44.0687 122.971 42.716 122.971 41.0251V18.959C122.971 18.1982 122.844 17.6697 122.59 17.3738C122.378 17.0779 121.976 16.9088 121.382 16.8666L120.302 16.7398C119.581 16.6552 119.221 16.3804 119.221 15.9155C119.221 15.3659 119.624 15.0911 120.429 15.0911H126.34C126.976 15.0911 127.294 15.4082 127.294 16.0423V39.6935C127.294 41.638 127.654 43.033 128.374 43.8785C129.137 44.6816 130.175 45.0832 131.489 45.0832C132.803 45.0832 133.968 44.7239 134.985 44.0053C136.002 43.2444 136.807 42.251 137.401 41.0251C138.036 39.7569 138.354 38.3831 138.354 36.9036V18.959C138.354 18.1982 138.227 17.6697 137.973 17.3738C137.761 17.0779 137.358 16.9088 136.765 16.8666L135.684 16.7398C134.964 16.6552 134.604 16.3804 134.604 15.9155C134.604 15.3659 135.006 15.0911 135.811 15.0911H141.723C142.359 15.0911 142.676 15.4082 142.676 16.0423V40.6447C142.676 41.4055 142.782 41.934 142.994 42.2299C143.248 42.4835 143.672 42.6526 144.266 42.7371L145.6 42.9273C146.151 42.9696 146.427 43.181 146.427 43.5614C146.427 43.9419 146.088 44.1955 145.41 44.3223C144.096 44.4914 143.037 44.8296 142.231 45.3369C141.469 45.8441 140.791 46.4571 140.197 47.1757C139.816 47.5561 139.498 47.7464 139.244 47.7464C138.863 47.7464 138.672 47.4927 138.672 46.9855V44.0687C138.672 43.7305 138.545 43.5403 138.29 43.498C138.079 43.4135 137.845 43.498 137.591 43.7517C136.023 45.3157 134.625 46.4148 133.396 47.0489C132.209 47.683 130.875 48 129.391 48Z" fill="currentColor"/>
<path d="M148.658 47.4293C148.149 47.4293 147.895 47.1968 147.895 46.7318C147.895 46.3091 148.128 46.0555 148.594 45.9709L149.484 45.8441C150.374 45.7173 151.031 45.4637 151.455 45.0832C151.879 44.7028 152.09 44.0687 152.09 43.181V6.84808C152.09 6.08718 151.963 5.55878 151.709 5.26288C151.497 4.96697 151.095 4.79788 150.501 4.75561L149.039 4.56539C148.573 4.48084 148.34 4.22721 148.34 3.80449C148.34 3.38177 148.573 3.12814 149.039 3.04359C150.226 2.78996 151.243 2.49405 152.09 2.15588C152.938 1.8177 153.637 1.47952 154.188 1.14135C154.866 0.718627 155.375 0.507267 155.714 0.507267C156.18 0.507267 156.413 0.845443 156.413 1.5218V43.181C156.413 44.0687 156.54 44.7028 156.794 45.0832C157.091 45.4214 157.684 45.6539 158.574 45.7807L160.036 45.9709C160.502 46.0555 160.735 46.3091 160.735 46.7318C160.735 47.1968 160.481 47.4293 159.972 47.4293H148.658Z" fill="currentColor"/>
<path d="M168.155 48C167.223 48 166.417 47.7041 165.739 47.1123C165.104 46.4782 164.786 45.6539 164.786 44.6394C164.786 43.6671 165.104 42.8851 165.739 42.2933C166.417 41.6592 167.223 41.3421 168.155 41.3421C169.002 41.3421 169.765 41.6592 170.443 42.2933C171.121 42.8851 171.46 43.6671 171.46 44.6394C171.46 45.6539 171.121 46.4782 170.443 47.1123C169.765 47.7041 169.002 48 168.155 48Z" fill="currentColor"/>
<path d="M176.793 47.4293C176.157 47.4293 175.839 47.1968 175.839 46.7318C175.839 46.3514 176.115 46.0978 176.666 45.9709L177.428 45.8441C178.318 45.675 178.89 45.4214 179.145 45.0832C179.441 44.7028 179.59 44.0687 179.59 43.181V21.8758C179.59 21.1149 179.462 20.6077 179.208 20.354C178.996 20.0581 178.594 19.8679 178.001 19.7834L176.666 19.5931C176.115 19.5509 175.839 19.3184 175.839 18.8956C175.839 18.5575 176.178 18.325 176.856 18.1981C178.17 17.9868 179.166 17.6486 179.844 17.1836C180.564 16.7186 181.306 16.148 182.069 15.4716C182.45 15.0911 182.768 14.9009 183.022 14.9009C183.404 14.9009 183.594 15.1546 183.594 15.6618V18.5152C183.594 18.8111 183.721 19.0436 183.976 19.2127C184.23 19.3395 184.505 19.255 184.802 18.959C186.539 17.3104 188.044 16.1902 189.315 15.5984C190.629 15.0066 191.942 14.7107 193.256 14.7107C194.485 14.7107 195.566 15.0489 196.498 15.7252C197.472 16.3593 198.193 17.3316 198.659 18.642C198.786 18.9802 198.998 19.1915 199.295 19.2761C199.634 19.3184 199.952 19.1915 200.248 18.8956C201.986 17.2893 203.49 16.1902 204.761 15.5984C206.033 15.0066 207.325 14.7107 208.639 14.7107C210.418 14.7107 211.859 15.3871 212.961 16.7398C214.105 18.0502 214.677 19.9947 214.677 22.5733V43.181C214.677 44.0687 214.804 44.7028 215.059 45.0832C215.355 45.4214 215.949 45.6539 216.839 45.7807L218.237 45.9709C218.703 46.0555 218.936 46.3091 218.936 46.7318C218.936 47.1968 218.682 47.4293 218.173 47.4293H207.304C206.711 47.4293 206.414 47.1968 206.414 46.7318C206.414 46.3091 206.647 46.0555 207.113 45.9709L208.003 45.8441C208.978 45.7173 209.613 45.4637 209.91 45.0832C210.207 44.7028 210.355 44.0687 210.355 43.181V23.2708C210.355 21.1995 209.974 19.7411 209.211 18.8956C208.49 18.0502 207.495 17.6275 206.223 17.6275C204.952 17.6275 203.787 18.0291 202.727 18.8322C201.71 19.5931 200.884 20.6288 200.248 21.9392C199.612 23.2074 199.295 24.6235 199.295 26.1876V43.181C199.295 44.0687 199.443 44.7028 199.74 45.0832C200.036 45.4214 200.651 45.6539 201.583 45.7807L202.981 45.9709C203.448 46.0555 203.681 46.3091 203.681 46.7318C203.681 47.1968 203.426 47.4293 202.918 47.4293H192.112C191.519 47.4293 191.222 47.1968 191.222 46.7318C191.222 46.3091 191.455 46.0555 191.921 45.9709L192.811 45.8441C193.701 45.7173 194.273 45.4637 194.527 45.0832C194.824 44.7028 194.972 44.0687 194.972 43.181V23.2708C194.972 21.1995 194.591 19.7411 193.828 18.8956C193.108 18.0502 192.112 17.6275 190.841 17.6275C189.569 17.6275 188.404 18.0291 187.345 18.8322C186.327 19.5931 185.501 20.6288 184.865 21.9392C184.23 23.2074 183.912 24.6235 183.912 26.1876V43.181C183.912 44.0687 184.039 44.7028 184.293 45.0832C184.59 45.4637 185.183 45.6962 186.073 45.7807L187.789 45.9709C188.256 46.0555 188.489 46.288 188.489 46.6684C188.489 47.1757 188.171 47.4293 187.535 47.4293H176.793Z" fill="currentColor"/>
<path d="M231.846 48C229.812 48 227.99 47.3236 226.38 45.9709C224.769 44.6182 223.477 42.716 222.502 40.2642C221.57 37.7701 221.104 34.8956 221.104 31.6407C221.104 28.3012 221.591 25.3633 222.566 22.8269C223.54 20.2906 224.875 18.3038 226.57 16.8666C228.265 15.4293 230.151 14.7107 232.228 14.7107C234.728 14.7107 236.741 15.7464 238.266 17.8177C239.834 19.8468 240.618 23.1651 240.618 27.7728C240.618 29.1678 240.088 29.8653 239.029 29.8653H226.952C226.104 29.8653 225.68 30.3514 225.68 31.3236C225.68 35.8045 226.337 39.1651 227.651 41.4055C228.965 43.646 230.639 44.7662 232.673 44.7662C234.283 44.7662 235.597 44.1955 236.614 43.0542C237.631 41.9128 238.457 39.9894 239.093 37.284C239.22 36.819 239.495 36.5865 239.919 36.5865C240.427 36.5865 240.618 37.0092 240.491 37.8547C239.813 41.6169 238.732 44.2589 237.249 45.7807C235.766 47.2602 233.965 48 231.846 48ZM226.761 28.2801H233.181C235.215 28.2801 236.232 27.2232 236.232 25.1096C236.232 22.362 235.893 20.2061 235.215 18.642C234.537 17.0779 233.52 16.2959 232.164 16.2959C230.511 16.2959 229.113 17.247 227.969 19.1493C226.867 21.0515 226.147 23.7569 225.808 27.2655C225.723 27.9419 226.041 28.2801 226.761 28.2801Z" fill="currentColor"/>
<path d="M244.144 47.4293C243.508 47.4293 243.191 47.1968 243.191 46.7318C243.191 46.3514 243.466 46.0978 244.017 45.9709L244.78 45.8441C245.67 45.675 246.242 45.4214 246.496 45.0832C246.793 44.7028 246.941 44.0687 246.941 43.181V21.8758C246.941 21.1149 246.814 20.6077 246.559 20.354C246.348 20.0581 245.945 19.8679 245.352 19.7834L244.017 19.5931C243.466 19.5509 243.191 19.3184 243.191 18.8956C243.191 18.5575 243.53 18.325 244.208 18.1981C245.521 17.9868 246.517 17.6486 247.195 17.1836C247.916 16.7186 248.657 16.148 249.42 15.4716C249.801 15.0911 250.119 14.9009 250.373 14.9009C250.755 14.9009 250.945 15.1546 250.945 15.6618V18.5152C250.945 18.8956 251.073 19.1493 251.327 19.2761C251.623 19.3606 251.941 19.2338 252.28 18.8956C253.975 17.2893 255.459 16.1902 256.73 15.5984C258.044 15.0066 259.421 14.7107 260.862 14.7107C262.768 14.7107 264.294 15.3871 265.438 16.7398C266.582 18.0502 267.154 19.9947 267.154 22.5733V43.181C267.154 44.0687 267.282 44.7028 267.536 45.0832C267.832 45.4214 268.426 45.6539 269.316 45.7807L270.714 45.9709C271.18 46.0555 271.413 46.3091 271.413 46.7318C271.413 47.1968 271.159 47.4293 270.651 47.4293H259.972C259.378 47.4293 259.082 47.1968 259.082 46.7318C259.082 46.3091 259.315 46.0555 259.781 45.9709L260.671 45.8441C261.561 45.7173 262.133 45.4637 262.387 45.0832C262.684 44.7028 262.832 44.0687 262.832 43.181V23.2708C262.832 21.1995 262.451 19.7411 261.688 18.8956C260.925 18.0502 259.845 17.6275 258.446 17.6275C257.09 17.6275 255.861 18.0291 254.759 18.8322C253.7 19.5931 252.852 20.6288 252.217 21.9392C251.581 23.2074 251.263 24.6235 251.263 26.1876V43.181C251.263 44.0687 251.39 44.7028 251.645 45.0832C251.941 45.4637 252.535 45.6962 253.424 45.7807L255.141 45.9709C255.607 46.0555 255.84 46.288 255.84 46.6684C255.84 47.1757 255.522 47.4293 254.886 47.4293H244.144Z" fill="currentColor"/>
<path d="M282.965 48C281.905 48 280.888 47.7675 279.914 47.3025C278.939 46.8375 278.134 46.0978 277.498 45.0832C276.862 44.0687 276.545 42.716 276.545 41.0251V18.959C276.545 18.1982 276.418 17.6697 276.163 17.3738C275.951 17.0779 275.549 16.9088 274.956 16.8666L273.875 16.7398C273.155 16.6552 272.794 16.3804 272.794 15.9155C272.794 15.3659 273.197 15.0911 274.002 15.0911H279.914C280.549 15.0911 280.867 15.4082 280.867 16.0423V39.6935C280.867 41.638 281.227 43.033 281.948 43.8785C282.71 44.6816 283.749 45.0832 285.062 45.0832C286.376 45.0832 287.541 44.7239 288.558 44.0053C289.575 43.2444 290.381 42.251 290.974 41.0251C291.609 39.7569 291.927 38.3831 291.927 36.9036V18.959C291.927 18.1982 291.8 17.6697 291.546 17.3738C291.334 17.0779 290.931 16.9088 290.338 16.8666L289.258 16.7398C288.537 16.6552 288.177 16.3804 288.177 15.9155C288.177 15.3659 288.58 15.0911 289.385 15.0911H295.296C295.932 15.0911 296.25 15.4082 296.25 16.0423V40.6447C296.25 41.4055 296.356 41.934 296.568 42.2299C296.822 42.4835 297.246 42.6526 297.839 42.7371L299.174 42.9273C299.725 42.9696 300 43.181 300 43.5614C300 43.9419 299.661 44.1955 298.983 44.3223C297.669 44.4914 296.61 44.8296 295.805 45.3369C295.042 45.8441 294.364 46.4571 293.771 47.1757C293.389 47.5561 293.071 47.7464 292.817 47.7464C292.436 47.7464 292.245 47.4927 292.245 46.9855V44.0687C292.245 43.7305 292.118 43.5403 291.864 43.498C291.652 43.4135 291.419 43.498 291.165 43.7517C289.597 45.3157 288.198 46.4148 286.969 47.0489C285.783 47.683 284.448 48 282.965 48Z" fill="currentColor"/>
</svg>
